<?xml version="1.0" encoding="utf-8"?>
<!-- Generator: Adobe Illustrator 20.1.0, SVG Export Plug-In . SVG Version: 6.00 Build 0)  -->
<svg version="1.1" id="Calque_1" xmlns="http://www.w3.org/2000/svg" xmlns:xlink="http://www.w3.org/1999/xlink" x="0px" y="0px"
	 viewBox="0 0 100 125" style="enable-background:new 0 0 100 125;" xml:space="preserve">
<style type="text/css">
	.st0{fill:none;stroke:#000000;stroke-miterlimit:10;}
</style>
<path class="st0" d="M30.2,29.3C28,5.9,71.8,2.1,69.8,29.3H30.2z"/>
<path class="st0" d="M40.7,29.3c6,10.9,12.2,11.2,18.6,0H40.7z"/>
<ellipse class="st0" cx="50" cy="71" rx="15.1" ry="19"/>
<path d="M40.3,46.2L40.3,46.2c-0.4-0.4-0.4-1,0-1.4l3.2-3.2c0.4-0.4,1-0.4,1.4,0v0c0.4,0.4,0.4,1,0,1.4l-3.2,3.2
	C41.3,46.6,40.7,46.6,40.3,46.2z"/>
<path d="M50.1,48.1L50.1,48.1c-0.5,0-1-0.4-1-1v-4.5c0-0.5,0.4-1,1-1h0c0.5,0,1,0.4,1,1v4.5C51.1,47.6,50.7,48.1,50.1,48.1z"/>
<path d="M60.2,46.2L60.2,46.2c-0.4,0.4-1,0.4-1.4,0L55.6,43c-0.4-0.4-0.4-1,0-1.4l0,0c0.4-0.4,1-0.4,1.4,0l3.2,3.2
	C60.5,45.2,60.5,45.8,60.2,46.2z"/>
<polyline class="st0" points="50,52.1 53,58.4 50,63.7 50,69.4 "/>
</svg>
