<svg xmlns="http://www.w3.org/2000/svg" xmlns:xlink="http://www.w3.org/1999/xlink" version="1.1" x="0px" y="0px" viewBox="0 0 100 125" enable-background="new 0 0 100 100" xml:space="preserve"><path d="M93.537,86.464L81.112,74.04c2.575-0.925,4.434-3.388,4.434-6.272V43.326v-8.885v-2.222c0-3.667-3-6.666-6.665-6.666H32.625  L13.533,6.463l-7.069,7.071l12.415,12.414c-2.577,0.923-4.437,3.387-4.437,6.271v2.222v8.885v24.441c0,3.668,3,6.667,6.667,6.667  h46.258l19.102,19.101L93.537,86.464z M75.506,68.434L50.398,43.326h29.149v24.441c0,0.356-0.312,0.666-0.666,0.666H75.506z   M78.881,31.553c0.354,0,0.666,0.312,0.666,0.666v2.222H41.513l-2.888-2.888H78.881z M27.373,34.441h-6.932v-2.222  c0-0.354,0.312-0.666,0.668-0.666h3.375L27.373,34.441z M21.109,68.434c-0.356,0-0.668-0.31-0.668-0.666V43.326h15.817  l25.108,25.107H21.109z"/><text x="0" y="115" fill="#000000" font-size="5px" font-weight="bold" font-family="'Helvetica Neue', Helvetica, Arial-Unicode, Arial, Sans-serif">Created by Ed Piel</text><text x="0" y="120" fill="#000000" font-size="5px" font-weight="bold" font-family="'Helvetica Neue', Helvetica, Arial-Unicode, Arial, Sans-serif">from the Noun Project</text></svg>