<svg xmlns="http://www.w3.org/2000/svg" xmlns:xlink="http://www.w3.org/1999/xlink" version="1.1" x="0px" y="0px" viewBox="0 0 100 125" enable-background="new 0 0 100 100" xml:space="preserve"><g><path d="M40.587,14.346c-3.409,0-6.538,0.954-8.821,2.497c-2.311,1.572-3.832,3.817-3.832,6.343c0,3.115,2.311,5.725,5.523,7.269   v6.229H15.055c-0.423,0-0.789,0.365-0.789,0.786v17.399c0,0.421,0.366,0.785,0.789,0.785h7.242c0.311,0,0.621-0.196,0.733-0.477   c1.353-3.087,3.636-5.023,6.087-5.023c1.944,0,3.721,1.15,5.072,3.115c1.354,1.992,2.227,4.799,2.227,7.886   c0,3.114-0.873,5.921-2.227,7.886c-1.352,1.964-3.128,3.115-5.072,3.115c-2.451,0-4.734-1.909-6.087-4.996   c-0.112-0.28-0.423-0.477-0.733-0.477h-7.242c-0.423-0.028-0.789,0.364-0.789,0.785v17.399c0,0.421,0.366,0.786,0.789,0.786h51.037   c0.422,0,0.816-0.365,0.816-0.786V68.255h2.65c1.549,3.199,4.17,5.473,7.299,5.473c2.535,0,4.791-1.487,6.369-3.789   c1.549-2.272,2.508-5.359,2.508-8.783c0-3.396-0.959-6.483-2.508-8.784c-1.578-2.273-3.834-3.789-6.369-3.789   c-3.129,0-5.75,2.273-7.299,5.473h-2.65V37.47c0-0.421-0.395-0.786-0.816-0.786H47.717v-6.229c3.213-1.544,5.496-4.153,5.496-7.269   c0-2.525-1.521-4.771-3.804-6.343C47.098,15.3,43.998,14.346,40.587,14.346L40.587,14.346z M40.587,15.945   c3.128,0,5.919,0.87,7.892,2.217c2,1.347,3.128,3.115,3.128,5.023c0,2.47-1.889,4.742-5.017,6.09   c-0.281,0.112-0.479,0.421-0.479,0.729v7.465c0,0.421,0.365,0.786,0.789,0.786h18.402v16.613c0,0.421,0.367,0.785,0.789,0.785   h3.918c0.309,0,0.619-0.196,0.732-0.477c1.352-3.087,3.635-5.023,6.115-5.023c1.916,0,3.691,1.15,5.045,3.115   c1.352,1.992,2.225,4.799,2.225,7.886c0,3.114-0.873,5.921-2.225,7.886c-1.354,1.964-3.129,3.115-5.045,3.115   c-2.48,0-4.764-1.909-6.115-4.996c-0.113-0.28-0.424-0.477-0.732-0.477h-3.918c-0.422-0.028-0.789,0.364-0.789,0.785v16.586h-49.43   v-15.8h5.975c1.55,3.199,4.171,5.473,7.271,5.473c2.564,0,4.818-1.487,6.397-3.789c1.55-2.272,2.508-5.359,2.508-8.783   c0-3.396-0.958-6.483-2.508-8.784c-1.579-2.273-3.833-3.789-6.397-3.789c-3.1,0-5.721,2.273-7.271,5.473h-5.975V38.256h18.374   c0.423,0,0.817-0.365,0.817-0.786v-7.465c0-0.309-0.197-0.617-0.507-0.729c-3.1-1.348-5.017-3.62-5.017-6.09   c0-1.908,1.127-3.677,3.128-5.023C34.641,16.815,37.459,15.945,40.587,15.945L40.587,15.945z"/></g><text x="0" y="115" fill="#000000" font-size="5px" font-weight="bold" font-family="'Helvetica Neue', Helvetica, Arial-Unicode, Arial, Sans-serif">Created by artworkbean</text><text x="0" y="120" fill="#000000" font-size="5px" font-weight="bold" font-family="'Helvetica Neue', Helvetica, Arial-Unicode, Arial, Sans-serif">from the Noun Project</text></svg>