<?xml version="1.0" encoding="utf-8"?>
<!-- Generator: Adobe Illustrator 20.1.0, SVG Export Plug-In . SVG Version: 6.00 Build 0)  -->
<svg version="1.1"
	 id="Calque_1" xmlns:cc="http://creativecommons.org/ns#" xmlns:dc="http://purl.org/dc/elements/1.1/" xmlns:inkscape="http://www.inkscape.org/namespaces/inkscape" xmlns:rdf="http://www.w3.org/1999/02/22-rdf-syntax-ns#" xmlns:sodipodi="http://sodipodi.sourceforge.net/DTD/sodipodi-0.dtd" xmlns:svg="http://www.w3.org/2000/svg"
	 xmlns="http://www.w3.org/2000/svg" xmlns:xlink="http://www.w3.org/1999/xlink" x="0px" y="0px" viewBox="0 0 100 125"
	 style="enable-background:new 0 0 100 125;" xml:space="preserve">
<style type="text/css">
	.st0{fill:none;stroke:#000000;stroke-miterlimit:10;}
</style>
<g>
	<polygon class="st0" points="37.9,6 90.4,30.1 91,94 38,94 	"/>
	<polyline class="st0" points="37.9,36.4 13.2,36.4 13.2,94 38,94 	"/>
	<rect x="41.8" y="29.4" class="st0" width="10" height="10"/>
	<rect x="20.6" y="45" class="st0" width="10" height="10"/>
	<rect x="20.6" y="60.2" class="st0" width="10" height="10"/>
	<rect x="20.6" y="76.4" class="st0" width="10" height="10"/>
	<rect x="57.8" y="29.4" class="st0" width="10" height="10"/>
	<rect x="42" y="44.7" class="st0" width="10" height="10"/>
	<rect x="58" y="44.7" class="st0" width="10" height="10"/>
	<rect x="74.5" y="44.7" class="st0" width="10" height="10"/>
	<rect x="41.8" y="60.2" class="st0" width="10" height="10"/>
	<rect x="57.8" y="60.2" class="st0" width="10" height="10"/>
	<rect x="74.2" y="60.2" class="st0" width="10" height="10"/>
	<rect x="41.8" y="76.4" class="st0" width="10" height="10"/>
	<rect x="57.8" y="76.4" class="st0" width="10" height="10"/>
	<rect x="74.2" y="76.4" class="st0" width="10" height="10"/>
</g>
</svg>
